PathFileType  4	(X/Y/Z) /Users/kristensteudel/Documents/NMBL_Research/BertecForceProcessing/anc_files/
DataRate	CameraRate	NumFrames	NumMarkers	Units	OrigDataRate	OrigDataStartFrame	OrigNumFrames
  200.0		  200.0		   5		     46		 mm	  200.0	      586	   1171
Frame#	Time	r_knee			r_shank_antsup			r_ankle			r_calc			r_5meta			r_toe			L_knee			L_shank_antsup			L_ankle			L_calc			L_5meta			L_toe			r_sh2			r_sh3			r_sh4			L_sh2			L_sh3			r_thigh1			r_thigh2			r_thigh3			r_thigh4			r_thigh5			L_thigh1			L_thigh2			L_thigh3			L_thigh4			r.ASIS			r.PSIS			L.ASIS			L.PSIS			C7			R_Shoulder			L_Shoulder			Sternum			R_humerus			R_elbow_med			R_elbow_lat			R_forearm			R_wrist_radius			R_wrist_ulna			L_humerus			L_elbow_med			L_elbow_lat			L_forearm			L_wrist_radius			L_wrist_ulna			
		X1	Y1	Z1	X2	Y2	Z2	X3	Y3	Z3	X4	Y4	Z4	X5	Y5	Z5	X6	Y6	Z6	X7	Y7	Z7	X8	Y8	Z8	X9	Y9	Z9	X10	Y10	Z10	X11	Y11	Z11	X12	Y12	Z12	X13	Y13	Z13	X14	Y14	Z14	X15	Y15	Z15	X16	Y16	Z16	X17	Y17	Z17	X18	Y18	Z18	X19	Y19	Z19	X20	Y20	Z20	X21	Y21	Z21	X22	Y22	Z22	X23	Y23	Z23	X24	Y24	Z24	X25	Y25	Z25	X26	Y26	Z26	X27	Y27	Z27	X28	Y28	Z28	X29	Y29	Z29	X30	Y30	Z30	X31	Y31	Z31	X32	Y32	Z32	X33	Y33	Z33	X34	Y34	Z34	X35	Y35	Z35	X36	Y36	Z36	X37	Y37	Z37	X38	Y38	Z38	X39	Y39	Z39	X40	Y40	Z40	X41	Y41	Z41	X42	Y42	Z42	X43	Y43	Z43	X44	Y44	Z44	X45	Y45	Z45	X46	Y46	Z46	

586	2.92500	724.475	518.743	-141.828	611.902	516.035	-142.139	345.693	696.321	-175.283	382.242	761.715	-240.653	200.331	683.136	-151.960	192.336	630.219	-208.257	890.544	549.589	-457.085	941.641	435.315	-459.769	981.084	120.011	-394.975	938.012	110.093	-331.244	1133.446	38.778	-413.548	1176.545	85.023	-367.612	505.821	569.072	-155.729	638.101	580.438	-115.056	543.170	640.645	-139.368	852.568	424.110	-446.674	888.064	308.421	-420.304	838.884	719.591	-133.366	821.362	605.308	-147.207	777.701	578.624	-124.528	731.286	726.358	-95.793	719.218	611.919	-122.311	875.192	781.635	-503.126	930.724	659.364	-460.366	764.689	738.855	-487.016	824.278	618.202	-453.637	835.250	1015.692	-172.643	619.697	1063.821	-219.477	789.816	1027.268	-430.736	602.058	1065.019	-322.297	755.069	1557.097	-308.982	839.642	1512.378	-116.898	791.495	1502.089	-506.461	888.794	1434.562	-328.329	766.477	1304.963	-22.666	627.765	1216.110	-39.866	663.336	1243.618	39.634	766.621	1085.387	21.771	813.718	975.242	8.080	771.761	966.180	33.499	652.782	1299.512	-605.738	512.745	1243.409	-556.759	553.275	1268.337	-638.338	636.652	1119.551	-619.499	721.166	1049.934	-556.233	660.196	1014.418	-585.638
587	2.93000	744.400	515.567	-141.956	633.264	514.394	-142.595	370.610	699.911	-173.965	406.366	765.949	-239.007	228.681	684.927	-151.316	216.844	634.121	-205.697	880.121	543.835	-457.279	927.509	426.417	-459.828	954.217	110.358	-394.678	908.828	103.912	-331.522	1095.855	39.096	-411.289	1147.934	67.849	-360.076	528.042	569.773	-155.030	660.467	578.558	-115.255	567.006	639.621	-140.361	838.611	418.189	-448.687	868.004	302.101	-422.434	850.082	720.319	-134.200	837.514	605.437	-147.923	795.548	576.724	-124.324	743.189	722.203	-95.277	735.672	607.416	-121.625	870.243	774.447	-505.320	922.132	651.882	-459.706	758.201	735.966	-484.602	814.924	613.824	-454.408	835.522	1013.576	-172.474	619.427	1060.062	-218.501	788.265	1024.624	-430.879	601.365	1061.816	-320.950	754.135	1552.179	-311.137	837.638	1508.929	-116.844	792.667	1495.306	-509.445	889.291	1430.743	-327.245	759.874	1302.755	-23.328	619.178	1216.751	-40.634	654.215	1244.295	38.954	746.469	1079.020	28.233	785.319	966.254	20.277	742.454	958.959	44.577	662.701	1284.057	-607.176	523.338	1223.753	-560.089	564.782	1248.418	-641.289	652.176	1102.802	-618.145	738.110	1038.164	-553.531	678.664	999.884	-582.651
588	2.93500	764.909	512.789	-142.170	655.522	512.638	-144.536	395.433	701.976	-172.447	430.090	769.054	-237.472	252.995	685.837	-147.522	238.494	634.930	-204.615	871.063	537.623	-457.365	913.597	417.442	-459.816	924.063	104.751	-393.498	877.036	102.770	-331.810	1060.090	41.457	-408.022	1113.215	54.270	-349.781	550.732	569.233	-154.605	683.665	576.923	-114.775	590.263	638.693	-139.669	823.888	412.213	-451.038	847.708	295.241	-424.716	861.674	721.531	-135.146	854.418	606.106	-148.691	814.153	575.532	-124.167	755.314	718.532	-94.526	752.986	603.456	-120.507	864.211	767.282	-503.458	912.833	643.129	-458.585	751.249	732.692	-484.182	804.267	607.484	-454.144	835.751	1010.898	-172.509	618.924	1055.870	-217.467	787.040	1021.983	-431.120	600.940	1058.437	-319.215	752.849	1547.042	-313.715	834.841	1505.499	-116.988	793.509	1488.550	-512.188	889.589	1426.665	-326.190	753.033	1300.562	-24.523	610.185	1218.043	-40.980	644.501	1245.531	38.330	726.199	1074.762	34.773	756.612	956.427	30.289	713.171	955.878	55.192	672.819	1268.307	-607.780	534.731	1204.005	-563.347	577.331	1228.604	-644.101	669.388	1087.405	-616.009	756.517	1028.535	-550.137	699.229	987.049	-578.696
589	2.94000	786.351	510.917	-142.509	678.779	511.006	-141.186	420.168	702.471	-171.221	453.181	770.984	-235.525	278.575	684.070	-144.498	261.857	633.658	-202.890	861.724	529.636	-458.655	900.691	408.394	-461.401	888.884	100.539	-385.809	834.983	94.889	-330.901	1023.739	40.947	-407.081	1073.127	53.573	-346.233	573.650	568.090	-154.194	706.664	575.289	-114.171	613.334	637.425	-139.394	809.973	406.116	-454.072	827.928	287.967	-427.266	873.594	723.259	-136.355	871.963	607.707	-149.572	833.688	575.156	-123.962	768.253	715.106	-93.560	771.218	599.937	-119.338	859.223	760.483	-500.084	902.901	633.474	-458.694	745.160	727.579	-484.803	793.534	601.780	-454.712	835.976	1007.693	-172.961	621.536	1052.149	-216.045	785.394	1019.067	-431.279	598.616	1054.903	-317.678	751.744	1542.003	-315.655	832.069	1502.156	-117.037	794.570	1481.780	-514.524	889.828	1422.436	-325.100	746.223	1298.603	-26.363	600.506	1219.980	-41.448	634.318	1247.750	37.971	705.371	1072.832	40.033	727.856	952.899	38.734	684.479	955.472	64.838	683.857	1252.302	-605.157	544.697	1185.161	-565.689	591.849	1208.730	-645.344	688.174	1073.478	-612.932	776.871	1021.227	-545.745	722.205	976.664	-574.381
590	2.94500	808.580	509.518	-143.249	701.941	509.446	-143.570	444.511	701.514	-169.769	474.681	771.419	-233.743	303.955	680.041	-141.306	287.206	630.428	-200.359	852.508	520.590	-458.362	888.962	396.505	-459.787	843.867	96.280	-375.391	790.216	79.048	-317.629	983.080	41.273	-405.980	1030.713	52.341	-344.448	596.722	566.245	-154.051	729.658	573.114	-112.826	636.086	635.812	-138.958	799.287	402.850	-456.411	806.756	284.006	-430.036	885.401	725.497	-138.524	889.974	610.304	-150.777	854.136	575.749	-124.046	781.886	712.121	-92.562	790.482	597.012	-118.321	853.305	753.377	-496.475	893.716	623.734	-460.748	738.320	722.826	-487.204	783.472	596.531	-454.456	836.174	1003.882	-173.634	621.396	1047.671	-214.863	783.339	1015.957	-431.607	598.653	1051.444	-315.902	750.718	1537.587	-317.395	828.563	1498.879	-117.371	796.631	1474.775	-517.998	890.144	1418.170	-324.092	738.754	1297.229	-27.928	589.911	1222.985	-41.742	623.562	1251.048	37.623	684.876	1073.240	44.876	699.749	951.638	47.372	656.353	957.628	73.678	694.917	1237.845	-602.850	559.107	1166.619	-568.255	606.699	1190.676	-645.596	708.592	1062.475	-607.871	797.724	1016.988	-540.537	746.222	968.836	-569.523
